# xmcd CD database file
#
# Track frame offsets:
#	150
#	20937
#	37612
#	57032
#	75832
#	96735
#	113347
#	126817
#	144735
#	163847
#	183747
#
# Disc length: 2675 seconds
#
# Revision: 0
# Processed by: cddbd v1.5PL3 Copyright (c) Steve Scherf et al.
# Submitted via: CDex 1.50
#
DISCID=8d0a710b
DTITLE=因幡晃 - TENDERNESS-10
DYEAR=1985
DGENRE=JPop
TTITLE0=ファニー・フェイス
TTITLE1=彼氏
TTITLE2=忍冬
TTITLE3=RAIN DOLL
TTITLE4=告白
TTITLE5=あんたって最低ね
TTITLE6=クライマックス
TTITLE7=背中にTENDERNESS
TTITLE8=花吹雪
TTITLE9=青い黄河
TTITLE10=千草
EXTD=YEAR: 1985
EXTT0=
EXTT1=
EXTT2=
EXTT3=
EXTT4=
EXTT5=
EXTT6=
EXTT7=
EXTT8=
EXTT9=
EXTT10=
PLAYORDER=
